# xmcd
#
# Track frame offsets:
#  150
#  14789
#  36640
#  61370
#  78430
#  98393
#  123687
#  146410
#
# Disc length: 2258 seconds
#
# Revision: 0
# Processed by: cddbd v1.5.1PL2 Copyright (c) Steve Scherf et al.
# Submitted via: Collectorz.com_Music_Collector 6.9
#
DISCID=6d08d008
DTITLE=Guy Clark - Riley Smith Hall - Disc 2
DYEAR=1998
DGENRE=
TTITLE0=Coat From The Cold
TTITLE1=Out In The Parking Lot
TTITLE2=Desperados Waiting For A Train
TTITLE3=To Live Is To Fly
TTITLE4=Texas Cooking
TTITLE5=Dublin Blues
TTITLE6=Come From The Heart
TTITLE7=Let Him Roll
EXTD=
EXTT0=
EXTT1=
EXTT2=
EXTT3=
EXTT4=
EXTT5=
EXTT6=
EXTT7=
PLAYORDER=
